<svg xmlns="http://www.w3.org/2000/svg" xmlns:xlink="http://www.w3.org/1999/xlink" width="940" zoomAndPan="magnify" viewBox="0 0 705 591.000005" height="788" preserveAspectRatio="xMidYMid meet" version="1.0"><defs><g/><clipPath id="026fde0c58"><path d="M 170.273438 169.011719 L 271.351562 169.011719 L 271.351562 267.097656 L 170.273438 267.097656 Z M 170.273438 169.011719 " clip-rule="nonzero"/></clipPath><clipPath id="f0e5dc52c0"><path d="M 139 335 L 179 335 L 179 421 L 139 421 Z M 139 335 " clip-rule="nonzero"/></clipPath><clipPath id="a746bc4f5e"><path d="M 143.691406 420.578125 L 139.957031 336.804688 L 175.113281 335.238281 L 178.847656 419.011719 Z M 143.691406 420.578125 " clip-rule="nonzero"/></clipPath><clipPath id="5d91ef814e"><path d="M 116.367188 311.707031 L 200.226562 311.707031 L 200.226562 337.914062 L 116.367188 337.914062 Z M 116.367188 311.707031 " clip-rule="nonzero"/></clipPath><clipPath id="35858a8082"><path d="M 229.339844 321.503906 L 588.730469 321.503906 L 588.730469 420.335938 L 229.339844 420.335938 Z M 229.339844 321.503906 " clip-rule="nonzero"/></clipPath><clipPath id="06140cbff6"><path d="M 142.332031 318.773438 L 205.226562 318.773438 L 205.226562 338.238281 L 142.332031 338.238281 Z M 142.332031 318.773438 " clip-rule="nonzero"/></clipPath><clipPath id="8e925a37ba"><path d="M 434.371094 169.011719 L 525.71875 169.011719 L 525.71875 267.097656 L 434.371094 267.097656 Z M 434.371094 169.011719 " clip-rule="nonzero"/></clipPath><clipPath id="2caa265556"><path d="M 307.367188 169.011719 L 398.710938 169.011719 L 398.710938 267.097656 L 307.367188 267.097656 Z M 307.367188 169.011719 " clip-rule="nonzero"/></clipPath><clipPath id="3585ae101b"><path d="M 434.371094 165.257812 L 525.71875 165.257812 L 525.71875 181.726562 L 434.371094 181.726562 Z M 434.371094 165.257812 " clip-rule="nonzero"/></clipPath><clipPath id="5b6df7bd27"><path d="M 307.367188 165.257812 L 398.710938 165.257812 L 398.710938 181.726562 L 307.367188 181.726562 Z M 307.367188 165.257812 " clip-rule="nonzero"/></clipPath><clipPath id="035a6415d9"><path d="M 173.742188 161.527344 L 265.089844 161.527344 L 265.089844 181.742188 L 173.742188 181.742188 Z M 173.742188 161.527344 " clip-rule="nonzero"/></clipPath><clipPath id="5759bd86e7"><path d="M 302.988281 181.71875 L 537.34375 181.71875 L 537.34375 267.074219 L 302.988281 267.074219 Z M 302.988281 181.71875 " clip-rule="nonzero"/></clipPath><clipPath id="36d80f8c3e"><path d="M 191.203125 181.71875 L 285.542969 181.71875 L 285.542969 215.414062 L 191.203125 215.414062 Z M 191.203125 181.71875 " clip-rule="nonzero"/></clipPath><clipPath id="b9f4f12e7b"><path d="M 173.742188 239 L 268.082031 239 L 268.082031 272.691406 L 173.742188 272.691406 Z M 173.742188 239 " clip-rule="nonzero"/></clipPath><clipPath id="0e1869530a"><path d="M 182.023438 224.375 L 276.363281 224.375 L 276.363281 258.070312 L 182.023438 258.070312 Z M 182.023438 224.375 " clip-rule="nonzero"/></clipPath><clipPath id="178fd668a1"><path d="M 310.101562 239 L 404.441406 239 L 404.441406 272.691406 L 310.101562 272.691406 Z M 310.101562 239 " clip-rule="nonzero"/></clipPath><clipPath id="82ee41126f"><path d="M 440.675781 239 L 535.015625 239 L 535.015625 272.691406 L 440.675781 272.691406 Z M 440.675781 239 " clip-rule="nonzero"/></clipPath></defs><g clip-path="url(#026fde0c58)"><path fill="#ffffff" d="M 170.277344 169.011719 L 271.351562 169.011719 L 271.351562 267.097656 L 170.277344 267.097656 L 170.277344 169.011719 " fill-opacity="1" fill-rule="nonzero"/></g><g clip-path="url(#f0e5dc52c0)"><g clip-path="url(#a746bc4f5e)"><path fill="#ffffff" d="M 143.695312 420.578125 L 139.960938 336.804688 L 175.113281 335.238281 L 178.847656 419.011719 L 143.695312 420.578125 " fill-opacity="1" fill-rule="nonzero"/></g></g><g clip-path="url(#5d91ef814e)"><path fill="#ffffff" d="M 116.367188 311.710938 L 200.226562 311.710938 L 200.226562 337.914062 L 116.367188 337.914062 L 116.367188 311.710938 " fill-opacity="1" fill-rule="nonzero"/></g><g clip-path="url(#35858a8082)"><path fill="#ffffff" d="M 229.339844 321.503906 L 588.730469 321.503906 L 588.730469 420.335938 L 229.339844 420.335938 L 229.339844 321.503906 " fill-opacity="1" fill-rule="nonzero"/></g><g clip-path="url(#06140cbff6)"><path fill="#ffffff" d="M 142.332031 318.773438 L 205.226562 318.773438 L 205.226562 338.238281 L 142.332031 338.238281 L 142.332031 318.773438 " fill-opacity="1" fill-rule="nonzero"/></g><g clip-path="url(#8e925a37ba)"><path fill="#ffffff" d="M 434.371094 169.015625 L 525.71875 169.015625 L 525.71875 267.097656 L 434.371094 267.097656 L 434.371094 169.015625 " fill-opacity="1" fill-rule="nonzero"/></g><g clip-path="url(#2caa265556)"><path fill="#ffffff" d="M 307.367188 169.015625 L 398.710938 169.015625 L 398.710938 267.097656 L 307.367188 267.097656 L 307.367188 169.015625 " fill-opacity="1" fill-rule="nonzero"/></g><g clip-path="url(#3585ae101b)"><path fill="#ffffff" d="M 434.378906 165.257812 L 525.710938 165.257812 L 525.710938 181.726562 L 434.378906 181.726562 L 434.378906 165.257812 " fill-opacity="1" fill-rule="nonzero"/></g><g clip-path="url(#5b6df7bd27)"><path fill="#ffffff" d="M 307.375 165.257812 L 398.703125 165.257812 L 398.703125 181.726562 L 307.375 181.726562 L 307.375 165.257812 " fill-opacity="1" fill-rule="nonzero"/></g><g clip-path="url(#035a6415d9)"><path fill="#ffffff" d="M 173.742188 161.527344 L 265.089844 161.527344 L 265.089844 181.742188 L 173.742188 181.742188 L 173.742188 161.527344 " fill-opacity="1" fill-rule="nonzero"/></g><g clip-path="url(#5759bd86e7)"><path fill="#ffffff" d="M 302.992188 181.71875 L 537.339844 181.71875 L 537.339844 267.074219 L 302.992188 267.074219 L 302.992188 181.71875 " fill-opacity="1" fill-rule="nonzero"/></g><g clip-path="url(#36d80f8c3e)"><path fill="#ffffff" d="M 191.210938 181.71875 L 285.53125 181.71875 L 285.53125 215.414062 L 191.210938 215.414062 L 191.210938 181.71875 " fill-opacity="1" fill-rule="nonzero"/></g><g clip-path="url(#b9f4f12e7b)"><path fill="#ffffff" d="M 173.753906 239 L 268.074219 239 L 268.074219 272.691406 L 173.753906 272.691406 L 173.753906 239 " fill-opacity="1" fill-rule="nonzero"/></g><g clip-path="url(#0e1869530a)"><path fill="#ffffff" d="M 182.03125 224.375 L 276.355469 224.375 L 276.355469 258.070312 L 182.03125 258.070312 L 182.03125 224.375 " fill-opacity="1" fill-rule="nonzero"/></g><g clip-path="url(#178fd668a1)"><path fill="#ffffff" d="M 310.109375 239 L 404.433594 239 L 404.433594 272.691406 L 310.109375 272.691406 L 310.109375 239 " fill-opacity="1" fill-rule="nonzero"/></g><g clip-path="url(#82ee41126f)"><path fill="#ffffff" d="M 440.683594 239 L 535.007812 239 L 535.007812 272.691406 L 440.683594 272.691406 L 440.683594 239 " fill-opacity="1" fill-rule="nonzero"/></g><g fill="#000000" fill-opacity="1"><g transform="translate(162.007935, 269.677248)"><g><path d="M 127.3125 14 L 127.3125 0.140625 L 141.25 0.140625 L 141.25 14 Z M 127.3125 0.140625 L 127.3125 -14.0625 L 141.25 -14.0625 L 141.25 0.140625 Z M 127.3125 -14.0625 L 127.3125 -28.203125 L 141.25 -28.203125 L 141.25 -14.0625 Z M 127.3125 -28.203125 L 127.3125 -42.421875 L 141.25 -42.421875 L 141.25 -28.203125 Z M 127.3125 -42.421875 L 127.3125 -56.5625 L 141.25 -56.5625 L 141.25 -42.421875 Z M 127.3125 -56.5625 L 127.3125 -70.765625 L 141.25 -70.765625 L 141.25 -56.5625 Z M 127.3125 -70.765625 L 127.3125 -84.96875 L 141.25 -84.96875 L 141.25 -70.765625 Z M 127.3125 14 L 127.3125 28 L 113.1875 28 L 113.1875 14 Z M 113.1875 14 L 113.1875 0.140625 L 127.3125 0.140625 L 127.3125 14 Z M 113.1875 0.140625 L 113.1875 -14.0625 L 127.3125 -14.0625 L 127.3125 0.140625 Z M 113.1875 -14.0625 L 113.1875 -28.203125 L 127.3125 -28.203125 L 127.3125 -14.0625 Z M 113.1875 -28.203125 L 113.1875 -42.421875 L 127.3125 -42.421875 L 127.3125 -28.203125 Z M 113.1875 -42.421875 L 113.1875 -56.5625 L 127.3125 -56.5625 L 127.3125 -42.421875 Z M 113.1875 -56.5625 L 113.1875 -70.765625 L 127.3125 -70.765625 L 127.3125 -56.5625 Z M 113.1875 -70.765625 L 113.1875 -84.96875 L 127.3125 -84.96875 L 127.3125 -70.765625 Z M 113.1875 -84.96875 L 113.1875 -98.828125 L 127.3125 -98.828125 L 127.3125 -84.96875 Z M 98.96875 -98.828125 L 98.96875 -113.046875 L 113.1875 -113.046875 L 113.1875 -98.828125 Z M 113.1875 14 L 113.1875 28 L 98.96875 28 L 98.96875 14 Z M 98.96875 14 L 98.96875 0.140625 L 113.1875 0.140625 L 113.1875 14 Z M 98.96875 0.140625 L 98.96875 -14.0625 L 113.1875 -14.0625 L 113.1875 0.140625 Z M 98.96875 -42.421875 L 98.96875 -56.5625 L 113.1875 -56.5625 L 113.1875 -42.421875 Z M 98.96875 -84.96875 L 98.96875 -98.828125 L 113.1875 -98.828125 L 113.1875 -84.96875 Z M 84.828125 -98.828125 L 84.828125 -113.046875 L 98.96875 -113.046875 L 98.96875 -98.828125 Z M 98.96875 14 L 98.96875 28 L 84.828125 28 L 84.828125 14 Z M 84.828125 14 L 84.828125 0.140625 L 98.96875 0.140625 L 98.96875 14 Z M 70.625 -98.828125 L 70.625 -113.046875 L 84.828125 -113.046875 L 84.828125 -98.828125 Z M 84.828125 14 L 84.828125 28 L 70.625 28 L 70.625 14 Z M 70.625 14 L 70.625 0.140625 L 84.828125 0.140625 L 84.828125 14 Z M 70.625 -14.0625 L 70.625 -28.203125 L 84.828125 -28.203125 L 84.828125 -14.0625 Z M 70.625 -28.203125 L 70.625 -42.421875 L 84.828125 -42.421875 L 84.828125 -28.203125 Z M 70.625 -56.5625 L 70.625 -70.765625 L 84.828125 -70.765625 L 84.828125 -56.5625 Z M 70.625 -70.765625 L 70.625 -84.96875 L 84.828125 -84.96875 L 84.828125 -70.765625 Z M 56.40625 -98.828125 L 56.40625 -113.046875 L 70.625 -113.046875 L 70.625 -98.828125 Z M 70.625 14 L 70.625 28 L 56.40625 28 L 56.40625 14 Z M 56.40625 14 L 56.40625 0.140625 L 70.625 0.140625 L 70.625 14 Z M 56.40625 -14.0625 L 56.40625 -28.203125 L 70.625 -28.203125 L 70.625 -14.0625 Z M 56.40625 -28.203125 L 56.40625 -42.421875 L 70.625 -42.421875 L 70.625 -28.203125 Z M 56.40625 -56.5625 L 56.40625 -70.765625 L 70.625 -70.765625 L 70.625 -56.5625 Z M 56.40625 -70.765625 L 56.40625 -84.96875 L 70.625 -84.96875 L 70.625 -70.765625 Z M 42.5625 -98.828125 L 42.5625 -113.046875 L 56.40625 -113.046875 L 56.40625 -98.828125 Z M 56.40625 14 L 56.40625 28 L 42.5625 28 L 42.5625 14 Z M 42.5625 14 L 42.5625 0.140625 L 56.40625 0.140625 L 56.40625 14 Z M 42.5625 -14.0625 L 42.5625 -28.203125 L 56.40625 -28.203125 L 56.40625 -14.0625 Z M 42.5625 -28.203125 L 42.5625 -42.421875 L 56.40625 -42.421875 L 56.40625 -28.203125 Z M 42.5625 -56.5625 L 42.5625 -70.765625 L 56.40625 -70.765625 L 56.40625 -56.5625 Z M 42.5625 -70.765625 L 42.5625 -84.96875 L 56.40625 -84.96875 L 56.40625 -70.765625 Z M 28.34375 -98.828125 L 28.34375 -113.046875 L 42.5625 -113.046875 L 42.5625 -98.828125 Z M 42.5625 14 L 42.5625 28 L 28.34375 28 L 28.34375 14 Z M 28.34375 14 L 28.34375 0.140625 L 42.5625 0.140625 L 42.5625 14 Z M 14.203125 -98.828125 L 14.203125 -113.046875 L 28.34375 -113.046875 L 28.34375 -98.828125 Z M 28.34375 14 L 28.34375 28 L 14.203125 28 L 14.203125 14 Z M 14.203125 14 L 14.203125 0.140625 L 28.34375 0.140625 L 28.34375 14 Z M 0 -98.828125 L 0 -113.046875 L 14.203125 -113.046875 L 14.203125 -98.828125 Z M 0 14 L 0 0.140625 L 14.203125 0.140625 L 14.203125 14 Z M 0 0.140625 L 0 -14.0625 L 14.203125 -14.0625 L 14.203125 0.140625 Z M 0 -14.0625 L 0 -28.203125 L 14.203125 -28.203125 L 14.203125 -14.0625 Z M 0 -28.203125 L 0 -42.421875 L 14.203125 -42.421875 L 14.203125 -28.203125 Z M 0 -42.421875 L 0 -56.5625 L 14.203125 -56.5625 L 14.203125 -42.421875 Z M 0 -56.5625 L 0 -70.765625 L 14.203125 -70.765625 L 14.203125 -56.5625 Z M 0 -70.765625 L 0 -84.96875 L 14.203125 -84.96875 L 14.203125 -70.765625 Z M 0 -84.96875 L 0 -98.828125 L 14.203125 -98.828125 L 14.203125 -84.96875 Z M 0 -84.96875 "/></g></g></g><g fill="#000000" fill-opacity="1"><g transform="translate(289.321894, 269.677248)"><g><path d="M 127.3125 14 L 127.3125 0.140625 L 141.25 0.140625 L 141.25 14 Z M 127.3125 0.140625 L 127.3125 -14.0625 L 141.25 -14.0625 L 141.25 0.140625 Z M 127.3125 -14.0625 L 127.3125 -28.203125 L 141.25 -28.203125 L 141.25 -14.0625 Z M 127.3125 -28.203125 L 127.3125 -42.421875 L 141.25 -42.421875 L 141.25 -28.203125 Z M 127.3125 -42.421875 L 127.3125 -56.5625 L 141.25 -56.5625 L 141.25 -42.421875 Z M 127.3125 -56.5625 L 127.3125 -70.765625 L 141.25 -70.765625 L 141.25 -56.5625 Z M 127.3125 -70.765625 L 127.3125 -84.96875 L 141.25 -84.96875 L 141.25 -70.765625 Z M 127.3125 14 L 127.3125 28 L 113.1875 28 L 113.1875 14 Z M 113.1875 14 L 113.1875 0.140625 L 127.3125 0.140625 L 127.3125 14 Z M 113.1875 0.140625 L 113.1875 -14.0625 L 127.3125 -14.0625 L 127.3125 0.140625 Z M 113.1875 -14.0625 L 113.1875 -28.203125 L 127.3125 -28.203125 L 127.3125 -14.0625 Z M 113.1875 -28.203125 L 113.1875 -42.421875 L 127.3125 -42.421875 L 127.3125 -28.203125 Z M 113.1875 -42.421875 L 113.1875 -56.5625 L 127.3125 -56.5625 L 127.3125 -42.421875 Z M 113.1875 -56.5625 L 113.1875 -70.765625 L 127.3125 -70.765625 L 127.3125 -56.5625 Z M 113.1875 -70.765625 L 113.1875 -84.96875 L 127.3125 -84.96875 L 127.3125 -70.765625 Z M 113.1875 -84.96875 L 113.1875 -98.828125 L 127.3125 -98.828125 L 127.3125 -84.96875 Z M 98.96875 -98.828125 L 98.96875 -113.046875 L 113.1875 -113.046875 L 113.1875 -98.828125 Z M 113.1875 14 L 113.1875 28 L 98.96875 28 L 98.96875 14 Z M 98.96875 14 L 98.96875 0.140625 L 113.1875 0.140625 L 113.1875 14 Z M 98.96875 0.140625 L 98.96875 -14.0625 L 113.1875 -14.0625 L 113.1875 0.140625 Z M 98.96875 -84.96875 L 98.96875 -98.828125 L 113.1875 -98.828125 L 113.1875 -84.96875 Z M 84.828125 -98.828125 L 84.828125 -113.046875 L 98.96875 -113.046875 L 98.96875 -98.828125 Z M 98.96875 14 L 98.96875 28 L 84.828125 28 L 84.828125 14 Z M 84.828125 14 L 84.828125 0.140625 L 98.96875 0.140625 L 98.96875 14 Z M 70.625 -98.828125 L 70.625 -113.046875 L 84.828125 -113.046875 L 84.828125 -98.828125 Z M 84.828125 14 L 84.828125 28 L 70.625 28 L 70.625 14 Z M 70.625 14 L 70.625 0.140625 L 84.828125 0.140625 L 84.828125 14 Z M 70.625 -14.0625 L 70.625 -28.203125 L 84.828125 -28.203125 L 84.828125 -14.0625 Z M 70.625 -28.203125 L 70.625 -42.421875 L 84.828125 -42.421875 L 84.828125 -28.203125 Z M 70.625 -42.421875 L 70.625 -56.5625 L 84.828125 -56.5625 L 84.828125 -42.421875 Z M 70.625 -56.5625 L 70.625 -70.765625 L 84.828125 -70.765625 L 84.828125 -56.5625 Z M 70.625 -70.765625 L 70.625 -84.96875 L 84.828125 -84.96875 L 84.828125 -70.765625 Z M 56.40625 -98.828125 L 56.40625 -113.046875 L 70.625 -113.046875 L 70.625 -98.828125 Z M 70.625 14 L 70.625 28 L 56.40625 28 L 56.40625 14 Z M 56.40625 14 L 56.40625 0.140625 L 70.625 0.140625 L 70.625 14 Z M 56.40625 -14.0625 L 56.40625 -28.203125 L 70.625 -28.203125 L 70.625 -14.0625 Z M 56.40625 -28.203125 L 56.40625 -42.421875 L 70.625 -42.421875 L 70.625 -28.203125 Z M 56.40625 -42.421875 L 56.40625 -56.5625 L 70.625 -56.5625 L 70.625 -42.421875 Z M 56.40625 -56.5625 L 56.40625 -70.765625 L 70.625 -70.765625 L 70.625 -56.5625 Z M 56.40625 -70.765625 L 56.40625 -84.96875 L 70.625 -84.96875 L 70.625 -70.765625 Z M 42.5625 -98.828125 L 42.5625 -113.046875 L 56.40625 -113.046875 L 56.40625 -98.828125 Z M 56.40625 14 L 56.40625 28 L 42.5625 28 L 42.5625 14 Z M 42.5625 14 L 42.5625 0.140625 L 56.40625 0.140625 L 56.40625 14 Z M 42.5625 -14.0625 L 42.5625 -28.203125 L 56.40625 -28.203125 L 56.40625 -14.0625 Z M 42.5625 -28.203125 L 42.5625 -42.421875 L 56.40625 -42.421875 L 56.40625 -28.203125 Z M 42.5625 -42.421875 L 42.5625 -56.5625 L 56.40625 -56.5625 L 56.40625 -42.421875 Z M 42.5625 -56.5625 L 42.5625 -70.765625 L 56.40625 -70.765625 L 56.40625 -56.5625 Z M 42.5625 -70.765625 L 42.5625 -84.96875 L 56.40625 -84.96875 L 56.40625 -70.765625 Z M 28.34375 -98.828125 L 28.34375 -113.046875 L 42.5625 -113.046875 L 42.5625 -98.828125 Z M 42.5625 14 L 42.5625 28 L 28.34375 28 L 28.34375 14 Z M 28.34375 14 L 28.34375 0.140625 L 42.5625 0.140625 L 42.5625 14 Z M 14.203125 -98.828125 L 14.203125 -113.046875 L 28.34375 -113.046875 L 28.34375 -98.828125 Z M 14.203125 14 L 14.203125 0.140625 L 28.34375 0.140625 L 28.34375 14 Z M 14.203125 0.140625 L 14.203125 -14.0625 L 28.34375 -14.0625 L 28.34375 0.140625 Z M 14.203125 -84.96875 L 14.203125 -98.828125 L 28.34375 -98.828125 L 28.34375 -84.96875 Z M 0 0.140625 L 0 -14.0625 L 14.203125 -14.0625 L 14.203125 0.140625 Z M 0 -14.0625 L 0 -28.203125 L 14.203125 -28.203125 L 14.203125 -14.0625 Z M 0 -28.203125 L 0 -42.421875 L 14.203125 -42.421875 L 14.203125 -28.203125 Z M 0 -42.421875 L 0 -56.5625 L 14.203125 -56.5625 L 14.203125 -42.421875 Z M 0 -56.5625 L 0 -70.765625 L 14.203125 -70.765625 L 14.203125 -56.5625 Z M 0 -70.765625 L 0 -84.96875 L 14.203125 -84.96875 L 14.203125 -70.765625 Z M 0 -84.96875 L 0 -98.828125 L 14.203125 -98.828125 L 14.203125 -84.96875 Z M 0 -84.96875 "/></g></g></g><g fill="#000000" fill-opacity="1"><g transform="translate(416.635854, 269.677248)"><g><path d="M 127.3125 14 L 127.3125 0.140625 L 141.25 0.140625 L 141.25 14 Z M 127.3125 0.140625 L 127.3125 -14.0625 L 141.25 -14.0625 L 141.25 0.140625 Z M 127.3125 -14.0625 L 127.3125 -28.203125 L 141.25 -28.203125 L 141.25 -14.0625 Z M 127.3125 -28.203125 L 127.3125 -42.421875 L 141.25 -42.421875 L 141.25 -28.203125 Z M 127.3125 -42.421875 L 127.3125 -56.5625 L 141.25 -56.5625 L 141.25 -42.421875 Z M 127.3125 -56.5625 L 127.3125 -70.765625 L 141.25 -70.765625 L 141.25 -56.5625 Z M 127.3125 -70.765625 L 127.3125 -84.96875 L 141.25 -84.96875 L 141.25 -70.765625 Z M 127.3125 14 L 127.3125 28 L 113.1875 28 L 113.1875 14 Z M 113.1875 14 L 113.1875 0.140625 L 127.3125 0.140625 L 127.3125 14 Z M 113.1875 0.140625 L 113.1875 -14.0625 L 127.3125 -14.0625 L 127.3125 0.140625 Z M 113.1875 -14.0625 L 113.1875 -28.203125 L 127.3125 -28.203125 L 127.3125 -14.0625 Z M 113.1875 -28.203125 L 113.1875 -42.421875 L 127.3125 -42.421875 L 127.3125 -28.203125 Z M 113.1875 -42.421875 L 113.1875 -56.5625 L 127.3125 -56.5625 L 127.3125 -42.421875 Z M 113.1875 -56.5625 L 113.1875 -70.765625 L 127.3125 -70.765625 L 127.3125 -56.5625 Z M 113.1875 -70.765625 L 113.1875 -84.96875 L 127.3125 -84.96875 L 127.3125 -70.765625 Z M 113.1875 -84.96875 L 113.1875 -98.828125 L 127.3125 -98.828125 L 127.3125 -84.96875 Z M 98.96875 -98.828125 L 98.96875 -113.046875 L 113.1875 -113.046875 L 113.1875 -98.828125 Z M 113.1875 14 L 113.1875 28 L 98.96875 28 L 98.96875 14 Z M 98.96875 14 L 98.96875 0.140625 L 113.1875 0.140625 L 113.1875 14 Z M 98.96875 0.140625 L 98.96875 -14.0625 L 113.1875 -14.0625 L 113.1875 0.140625 Z M 98.96875 -84.96875 L 98.96875 -98.828125 L 113.1875 -98.828125 L 113.1875 -84.96875 Z M 84.828125 -98.828125 L 84.828125 -113.046875 L 98.96875 -113.046875 L 98.96875 -98.828125 Z M 98.96875 14 L 98.96875 28 L 84.828125 28 L 84.828125 14 Z M 84.828125 14 L 84.828125 0.140625 L 98.96875 0.140625 L 98.96875 14 Z M 70.625 -98.828125 L 70.625 -113.046875 L 84.828125 -113.046875 L 84.828125 -98.828125 Z M 84.828125 14 L 84.828125 28 L 70.625 28 L 70.625 14 Z M 70.625 14 L 70.625 0.140625 L 84.828125 0.140625 L 84.828125 14 Z M 70.625 -14.0625 L 70.625 -28.203125 L 84.828125 -28.203125 L 84.828125 -14.0625 Z M 70.625 -28.203125 L 70.625 -42.421875 L 84.828125 -42.421875 L 84.828125 -28.203125 Z M 70.625 -42.421875 L 70.625 -56.5625 L 84.828125 -56.5625 L 84.828125 -42.421875 Z M 70.625 -56.5625 L 70.625 -70.765625 L 84.828125 -70.765625 L 84.828125 -56.5625 Z M 70.625 -70.765625 L 70.625 -84.96875 L 84.828125 -84.96875 L 84.828125 -70.765625 Z M 56.40625 -98.828125 L 56.40625 -113.046875 L 70.625 -113.046875 L 70.625 -98.828125 Z M 70.625 14 L 70.625 28 L 56.40625 28 L 56.40625 14 Z M 56.40625 14 L 56.40625 0.140625 L 70.625 0.140625 L 70.625 14 Z M 56.40625 -14.0625 L 56.40625 -28.203125 L 70.625 -28.203125 L 70.625 -14.0625 Z M 56.40625 -28.203125 L 56.40625 -42.421875 L 70.625 -42.421875 L 70.625 -28.203125 Z M 56.40625 -42.421875 L 56.40625 -56.5625 L 70.625 -56.5625 L 70.625 -42.421875 Z M 56.40625 -56.5625 L 56.40625 -70.765625 L 70.625 -70.765625 L 70.625 -56.5625 Z M 56.40625 -70.765625 L 56.40625 -84.96875 L 70.625 -84.96875 L 70.625 -70.765625 Z M 42.5625 -98.828125 L 42.5625 -113.046875 L 56.40625 -113.046875 L 56.40625 -98.828125 Z M 56.40625 14 L 56.40625 28 L 42.5625 28 L 42.5625 14 Z M 42.5625 14 L 42.5625 0.140625 L 56.40625 0.140625 L 56.40625 14 Z M 42.5625 -14.0625 L 42.5625 -28.203125 L 56.40625 -28.203125 L 56.40625 -14.0625 Z M 42.5625 -28.203125 L 42.5625 -42.421875 L 56.40625 -42.421875 L 56.40625 -28.203125 Z M 42.5625 -42.421875 L 42.5625 -56.5625 L 56.40625 -56.5625 L 56.40625 -42.421875 Z M 42.5625 -56.5625 L 42.5625 -70.765625 L 56.40625 -70.765625 L 56.40625 -56.5625 Z M 42.5625 -70.765625 L 42.5625 -84.96875 L 56.40625 -84.96875 L 56.40625 -70.765625 Z M 28.34375 -98.828125 L 28.34375 -113.046875 L 42.5625 -113.046875 L 42.5625 -98.828125 Z M 42.5625 14 L 42.5625 28 L 28.34375 28 L 28.34375 14 Z M 28.34375 14 L 28.34375 0.140625 L 42.5625 0.140625 L 42.5625 14 Z M 14.203125 -98.828125 L 14.203125 -113.046875 L 28.34375 -113.046875 L 28.34375 -98.828125 Z M 14.203125 14 L 14.203125 0.140625 L 28.34375 0.140625 L 28.34375 14 Z M 14.203125 0.140625 L 14.203125 -14.0625 L 28.34375 -14.0625 L 28.34375 0.140625 Z M 14.203125 -84.96875 L 14.203125 -98.828125 L 28.34375 -98.828125 L 28.34375 -84.96875 Z M 0 0.140625 L 0 -14.0625 L 14.203125 -14.0625 L 14.203125 0.140625 Z M 0 -14.0625 L 0 -28.203125 L 14.203125 -28.203125 L 14.203125 -14.0625 Z M 0 -28.203125 L 0 -42.421875 L 14.203125 -42.421875 L 14.203125 -28.203125 Z M 0 -42.421875 L 0 -56.5625 L 14.203125 -56.5625 L 14.203125 -42.421875 Z M 0 -56.5625 L 0 -70.765625 L 14.203125 -70.765625 L 14.203125 -56.5625 Z M 0 -70.765625 L 0 -84.96875 L 14.203125 -84.96875 L 14.203125 -70.765625 Z M 0 -84.96875 L 0 -98.828125 L 14.203125 -98.828125 L 14.203125 -84.96875 Z M 0 -84.96875 "/></g></g></g><g fill="#000000" fill-opacity="1"><g transform="translate(105.420092, 420.172597)"><g><path d="M 113.1875 -56.5625 L 113.1875 -70.765625 L 127.3125 -70.765625 L 127.3125 -56.5625 Z M 113.1875 -70.765625 L 113.1875 -84.96875 L 127.3125 -84.96875 L 127.3125 -70.765625 Z M 113.1875 -84.96875 L 113.1875 -98.828125 L 127.3125 -98.828125 L 127.3125 -84.96875 Z M 98.96875 -98.828125 L 98.96875 -113.046875 L 113.1875 -113.046875 L 113.1875 -98.828125 Z M 98.96875 -56.5625 L 98.96875 -70.765625 L 113.1875 -70.765625 L 113.1875 -56.5625 Z M 98.96875 -70.765625 L 98.96875 -84.96875 L 113.1875 -84.96875 L 113.1875 -70.765625 Z M 98.96875 -84.96875 L 98.96875 -98.828125 L 113.1875 -98.828125 L 113.1875 -84.96875 Z M 84.828125 -98.828125 L 84.828125 -113.046875 L 98.96875 -113.046875 L 98.96875 -98.828125 Z M 98.96875 14 L 98.96875 28 L 84.828125 28 L 84.828125 14 Z M 84.828125 14 L 84.828125 0.140625 L 98.96875 0.140625 L 98.96875 14 Z M 84.828125 0.140625 L 84.828125 -14.0625 L 98.96875 -14.0625 L 98.96875 0.140625 Z M 84.828125 -14.0625 L 84.828125 -28.203125 L 98.96875 -28.203125 L 98.96875 -14.0625 Z M 84.828125 -28.203125 L 84.828125 -42.421875 L 98.96875 -42.421875 L 98.96875 -28.203125 Z M 84.828125 -42.421875 L 84.828125 -56.5625 L 98.96875 -56.5625 L 98.96875 -42.421875 Z M 84.828125 -56.5625 L 84.828125 -70.765625 L 98.96875 -70.765625 L 98.96875 -56.5625 Z M 84.828125 -70.765625 L 84.828125 -84.96875 L 98.96875 -84.96875 L 98.96875 -70.765625 Z M 70.625 -98.828125 L 70.625 -113.046875 L 84.828125 -113.046875 L 84.828125 -98.828125 Z M 84.828125 14 L 84.828125 28 L 70.625 28 L 70.625 14 Z M 70.625 14 L 70.625 0.140625 L 84.828125 0.140625 L 84.828125 14 Z M 70.625 0.140625 L 70.625 -14.0625 L 84.828125 -14.0625 L 84.828125 0.140625 Z M 70.625 -14.0625 L 70.625 -28.203125 L 84.828125 -28.203125 L 84.828125 -14.0625 Z M 70.625 -28.203125 L 70.625 -42.421875 L 84.828125 -42.421875 L 84.828125 -28.203125 Z M 70.625 -42.421875 L 70.625 -56.5625 L 84.828125 -56.5625 L 84.828125 -42.421875 Z M 70.625 -56.5625 L 70.625 -70.765625 L 84.828125 -70.765625 L 84.828125 -56.5625 Z M 70.625 -70.765625 L 70.625 -84.96875 L 84.828125 -84.96875 L 84.828125 -70.765625 Z M 56.40625 -98.828125 L 56.40625 -113.046875 L 70.625 -113.046875 L 70.625 -98.828125 Z M 70.625 14 L 70.625 28 L 56.40625 28 L 56.40625 14 Z M 56.40625 14 L 56.40625 0.140625 L 70.625 0.140625 L 70.625 14 Z M 42.5625 -98.828125 L 42.5625 -113.046875 L 56.40625 -113.046875 L 56.40625 -98.828125 Z M 56.40625 14 L 56.40625 28 L 42.5625 28 L 42.5625 14 Z M 42.5625 14 L 42.5625 0.140625 L 56.40625 0.140625 L 56.40625 14 Z M 28.34375 -98.828125 L 28.34375 -113.046875 L 42.5625 -113.046875 L 42.5625 -98.828125 Z M 28.34375 14 L 28.34375 0.140625 L 42.5625 0.140625 L 42.5625 14 Z M 28.34375 0.140625 L 28.34375 -14.0625 L 42.5625 -14.0625 L 42.5625 0.140625 Z M 28.34375 -14.0625 L 28.34375 -28.203125 L 42.5625 -28.203125 L 42.5625 -14.0625 Z M 28.34375 -28.203125 L 28.34375 -42.421875 L 42.5625 -42.421875 L 42.5625 -28.203125 Z M 28.34375 -42.421875 L 28.34375 -56.5625 L 42.5625 -56.5625 L 42.5625 -42.421875 Z M 28.34375 -56.5625 L 28.34375 -70.765625 L 42.5625 -70.765625 L 42.5625 -56.5625 Z M 28.34375 -70.765625 L 28.34375 -84.96875 L 42.5625 -84.96875 L 42.5625 -70.765625 Z M 14.203125 -98.828125 L 14.203125 -113.046875 L 28.34375 -113.046875 L 28.34375 -98.828125 Z M 14.203125 -70.765625 L 14.203125 -84.96875 L 28.34375 -84.96875 L 28.34375 -70.765625 Z M 0 -98.828125 L 0 -113.046875 L 14.203125 -113.046875 L 14.203125 -98.828125 Z M 0 -70.765625 L 0 -84.96875 L 14.203125 -84.96875 L 14.203125 -70.765625 Z M 0 -84.96875 L 0 -98.828125 L 14.203125 -98.828125 L 14.203125 -84.96875 Z M 0 -84.96875 "/></g></g></g><g fill="#000000" fill-opacity="1"><g transform="translate(218.595914, 420.172597)"><g><path d="M 127.3125 14 L 127.3125 0.140625 L 141.25 0.140625 L 141.25 14 Z M 127.3125 0.140625 L 127.3125 -14.0625 L 141.25 -14.0625 L 141.25 0.140625 Z M 127.3125 -14.0625 L 127.3125 -28.203125 L 141.25 -28.203125 L 141.25 -14.0625 Z M 127.3125 -28.203125 L 127.3125 -42.421875 L 141.25 -42.421875 L 141.25 -28.203125 Z M 127.3125 -42.421875 L 127.3125 -56.5625 L 141.25 -56.5625 L 141.25 -42.421875 Z M 127.3125 -56.5625 L 127.3125 -70.765625 L 141.25 -70.765625 L 141.25 -56.5625 Z M 127.3125 -70.765625 L 127.3125 -84.96875 L 141.25 -84.96875 L 141.25 -70.765625 Z M 127.3125 14 L 127.3125 28 L 113.1875 28 L 113.1875 14 Z M 113.1875 14 L 113.1875 0.140625 L 127.3125 0.140625 L 127.3125 14 Z M 113.1875 0.140625 L 113.1875 -14.0625 L 127.3125 -14.0625 L 127.3125 0.140625 Z M 113.1875 -14.0625 L 113.1875 -28.203125 L 127.3125 -28.203125 L 127.3125 -14.0625 Z M 113.1875 -28.203125 L 113.1875 -42.421875 L 127.3125 -42.421875 L 127.3125 -28.203125 Z M 113.1875 -42.421875 L 113.1875 -56.5625 L 127.3125 -56.5625 L 127.3125 -42.421875 Z M 113.1875 -56.5625 L 113.1875 -70.765625 L 127.3125 -70.765625 L 127.3125 -56.5625 Z M 113.1875 -70.765625 L 113.1875 -84.96875 L 127.3125 -84.96875 L 127.3125 -70.765625 Z M 113.1875 -84.96875 L 113.1875 -98.828125 L 127.3125 -98.828125 L 127.3125 -84.96875 Z M 98.96875 -98.828125 L 98.96875 -113.046875 L 113.1875 -113.046875 L 113.1875 -98.828125 Z M 113.1875 14 L 113.1875 28 L 98.96875 28 L 98.96875 14 Z M 98.96875 14 L 98.96875 0.140625 L 113.1875 0.140625 L 113.1875 14 Z M 98.96875 0.140625 L 98.96875 -14.0625 L 113.1875 -14.0625 L 113.1875 0.140625 Z M 98.96875 -84.96875 L 98.96875 -98.828125 L 113.1875 -98.828125 L 113.1875 -84.96875 Z M 84.828125 -98.828125 L 84.828125 -113.046875 L 98.96875 -113.046875 L 98.96875 -98.828125 Z M 98.96875 14 L 98.96875 28 L 84.828125 28 L 84.828125 14 Z M 84.828125 14 L 84.828125 0.140625 L 98.96875 0.140625 L 98.96875 14 Z M 70.625 -98.828125 L 70.625 -113.046875 L 84.828125 -113.046875 L 84.828125 -98.828125 Z M 84.828125 14 L 84.828125 28 L 70.625 28 L 70.625 14 Z M 70.625 14 L 70.625 0.140625 L 84.828125 0.140625 L 84.828125 14 Z M 70.625 -14.0625 L 70.625 -28.203125 L 84.828125 -28.203125 L 84.828125 -14.0625 Z M 70.625 -28.203125 L 70.625 -42.421875 L 84.828125 -42.421875 L 84.828125 -28.203125 Z M 70.625 -42.421875 L 70.625 -56.5625 L 84.828125 -56.5625 L 84.828125 -42.421875 Z M 70.625 -56.5625 L 70.625 -70.765625 L 84.828125 -70.765625 L 84.828125 -56.5625 Z M 70.625 -70.765625 L 70.625 -84.96875 L 84.828125 -84.96875 L 84.828125 -70.765625 Z M 56.40625 -98.828125 L 56.40625 -113.046875 L 70.625 -113.046875 L 70.625 -98.828125 Z M 70.625 14 L 70.625 28 L 56.40625 28 L 56.40625 14 Z M 56.40625 14 L 56.40625 0.140625 L 70.625 0.140625 L 70.625 14 Z M 56.40625 -14.0625 L 56.40625 -28.203125 L 70.625 -28.203125 L 70.625 -14.0625 Z M 56.40625 -28.203125 L 56.40625 -42.421875 L 70.625 -42.421875 L 70.625 -28.203125 Z M 56.40625 -42.421875 L 56.40625 -56.5625 L 70.625 -56.5625 L 70.625 -42.421875 Z M 56.40625 -56.5625 L 56.40625 -70.765625 L 70.625 -70.765625 L 70.625 -56.5625 Z M 56.40625 -70.765625 L 56.40625 -84.96875 L 70.625 -84.96875 L 70.625 -70.765625 Z M 42.5625 -98.828125 L 42.5625 -113.046875 L 56.40625 -113.046875 L 56.40625 -98.828125 Z M 56.40625 14 L 56.40625 28 L 42.5625 28 L 42.5625 14 Z M 42.5625 14 L 42.5625 0.140625 L 56.40625 0.140625 L 56.40625 14 Z M 42.5625 -14.0625 L 42.5625 -28.203125 L 56.40625 -28.203125 L 56.40625 -14.0625 Z M 42.5625 -28.203125 L 42.5625 -42.421875 L 56.40625 -42.421875 L 56.40625 -28.203125 Z M 42.5625 -42.421875 L 42.5625 -56.5625 L 56.40625 -56.5625 L 56.40625 -42.421875 Z M 42.5625 -56.5625 L 42.5625 -70.765625 L 56.40625 -70.765625 L 56.40625 -56.5625 Z M 42.5625 -70.765625 L 42.5625 -84.96875 L 56.40625 -84.96875 L 56.40625 -70.765625 Z M 28.34375 -98.828125 L 28.34375 -113.046875 L 42.5625 -113.046875 L 42.5625 -98.828125 Z M 42.5625 14 L 42.5625 28 L 28.34375 28 L 28.34375 14 Z M 28.34375 14 L 28.34375 0.140625 L 42.5625 0.140625 L 42.5625 14 Z M 14.203125 -98.828125 L 14.203125 -113.046875 L 28.34375 -113.046875 L 28.34375 -98.828125 Z M 14.203125 14 L 14.203125 0.140625 L 28.34375 0.140625 L 28.34375 14 Z M 14.203125 0.140625 L 14.203125 -14.0625 L 28.34375 -14.0625 L 28.34375 0.140625 Z M 14.203125 -84.96875 L 14.203125 -98.828125 L 28.34375 -98.828125 L 28.34375 -84.96875 Z M 0 0.140625 L 0 -14.0625 L 14.203125 -14.0625 L 14.203125 0.140625 Z M 0 -14.0625 L 0 -28.203125 L 14.203125 -28.203125 L 14.203125 -14.0625 Z M 0 -28.203125 L 0 -42.421875 L 14.203125 -42.421875 L 14.203125 -28.203125 Z M 0 -42.421875 L 0 -56.5625 L 14.203125 -56.5625 L 14.203125 -42.421875 Z M 0 -56.5625 L 0 -70.765625 L 14.203125 -70.765625 L 14.203125 -56.5625 Z M 0 -70.765625 L 0 -84.96875 L 14.203125 -84.96875 L 14.203125 -70.765625 Z M 0 -84.96875 L 0 -98.828125 L 14.203125 -98.828125 L 14.203125 -84.96875 Z M 0 -84.96875 "/></g></g></g><g fill="#000000" fill-opacity="1"><g transform="translate(345.909874, 420.172597)"><g><path d="M 141.25 14 L 141.25 28 L 127.3125 28 L 127.3125 14 Z M 127.3125 14 L 127.3125 0.140625 L 141.25 0.140625 L 141.25 14 Z M 127.3125 0.140625 L 127.3125 -14.0625 L 141.25 -14.0625 L 141.25 0.140625 Z M 127.3125 -14.0625 L 127.3125 -28.203125 L 141.25 -28.203125 L 141.25 -14.0625 Z M 127.3125 -28.203125 L 127.3125 -42.421875 L 141.25 -42.421875 L 141.25 -28.203125 Z M 127.3125 -42.421875 L 127.3125 -56.5625 L 141.25 -56.5625 L 141.25 -42.421875 Z M 127.3125 -56.5625 L 127.3125 -70.765625 L 141.25 -70.765625 L 141.25 -56.5625 Z M 127.3125 -70.765625 L 127.3125 -84.96875 L 141.25 -84.96875 L 141.25 -70.765625 Z M 127.3125 -84.96875 L 127.3125 -98.828125 L 141.25 -98.828125 L 141.25 -84.96875 Z M 113.1875 -98.828125 L 113.1875 -113.046875 L 127.3125 -113.046875 L 127.3125 -98.828125 Z M 127.3125 14 L 127.3125 28 L 113.1875 28 L 113.1875 14 Z M 113.1875 14 L 113.1875 0.140625 L 127.3125 0.140625 L 127.3125 14 Z M 113.1875 0.140625 L 113.1875 -14.0625 L 127.3125 -14.0625 L 127.3125 0.140625 Z M 113.1875 -14.0625 L 113.1875 -28.203125 L 127.3125 -28.203125 L 127.3125 -14.0625 Z M 113.1875 -28.203125 L 113.1875 -42.421875 L 127.3125 -42.421875 L 127.3125 -28.203125 Z M 113.1875 -42.421875 L 113.1875 -56.5625 L 127.3125 -56.5625 L 127.3125 -42.421875 Z M 113.1875 -56.5625 L 113.1875 -70.765625 L 127.3125 -70.765625 L 127.3125 -56.5625 Z M 113.1875 -70.765625 L 113.1875 -84.96875 L 127.3125 -84.96875 L 127.3125 -70.765625 Z M 113.1875 -84.96875 L 113.1875 -98.828125 L 127.3125 -98.828125 L 127.3125 -84.96875 Z M 98.96875 -98.828125 L 98.96875 -113.046875 L 113.1875 -113.046875 L 113.1875 -98.828125 Z M 113.1875 14 L 113.1875 28 L 98.96875 28 L 98.96875 14 Z M 98.96875 14 L 98.96875 0.140625 L 113.1875 0.140625 L 113.1875 14 Z M 84.828125 -98.828125 L 84.828125 -113.046875 L 98.96875 -113.046875 L 98.96875 -98.828125 Z M 98.96875 14 L 98.96875 28 L 84.828125 28 L 84.828125 14 Z M 84.828125 14 L 84.828125 0.140625 L 98.96875 0.140625 L 98.96875 14 Z M 70.625 -98.828125 L 70.625 -113.046875 L 84.828125 -113.046875 L 84.828125 -98.828125 Z M 70.625 14 L 70.625 0.140625 L 84.828125 0.140625 L 84.828125 14 Z M 70.625 0.140625 L 70.625 -14.0625 L 84.828125 -14.0625 L 84.828125 0.140625 Z M 70.625 -42.421875 L 70.625 -56.5625 L 84.828125 -56.5625 L 84.828125 -42.421875 Z M 70.625 -56.5625 L 70.625 -70.765625 L 84.828125 -70.765625 L 84.828125 -56.5625 Z M 70.625 -70.765625 L 70.625 -84.96875 L 84.828125 -84.96875 L 84.828125 -70.765625 Z M 70.625 -84.96875 L 70.625 -98.828125 L 84.828125 -98.828125 L 84.828125 -84.96875 Z M 70.625 14 L 70.625 28 L 56.40625 28 L 56.40625 14 Z M 56.40625 14 L 56.40625 0.140625 L 70.625 0.140625 L 70.625 14 Z M 56.40625 0.140625 L 56.40625 -14.0625 L 70.625 -14.0625 L 70.625 0.140625 Z M 56.40625 -14.0625 L 56.40625 -28.203125 L 70.625 -28.203125 L 70.625 -14.0625 Z M 56.40625 -56.5625 L 56.40625 -70.765625 L 70.625 -70.765625 L 70.625 -56.5625 Z M 56.40625 -70.765625 L 56.40625 -84.96875 L 70.625 -84.96875 L 70.625 -70.765625 Z M 56.40625 -84.96875 L 56.40625 -98.828125 L 70.625 -98.828125 L 70.625 -84.96875 Z M 42.5625 -98.828125 L 42.5625 -113.046875 L 56.40625 -113.046875 L 56.40625 -98.828125 Z M 56.40625 14 L 56.40625 28 L 42.5625 28 L 42.5625 14 Z M 42.5625 14 L 42.5625 0.140625 L 56.40625 0.140625 L 56.40625 14 Z M 42.5625 0.140625 L 42.5625 -14.0625 L 56.40625 -14.0625 L 56.40625 0.140625 Z M 42.5625 -42.421875 L 42.5625 -56.5625 L 56.40625 -56.5625 L 56.40625 -42.421875 Z M 42.5625 -56.5625 L 42.5625 -70.765625 L 56.40625 -70.765625 L 56.40625 -56.5625 Z M 42.5625 -70.765625 L 42.5625 -84.96875 L 56.40625 -84.96875 L 56.40625 -70.765625 Z M 42.5625 -84.96875 L 42.5625 -98.828125 L 56.40625 -98.828125 L 56.40625 -84.96875 Z M 28.34375 -98.828125 L 28.34375 -113.046875 L 42.5625 -113.046875 L 42.5625 -98.828125 Z M 42.5625 14 L 42.5625 28 L 28.34375 28 L 28.34375 14 Z M 28.34375 14 L 28.34375 0.140625 L 42.5625 0.140625 L 42.5625 14 Z M 14.203125 -98.828125 L 14.203125 -113.046875 L 28.34375 -113.046875 L 28.34375 -98.828125 Z M 28.34375 14 L 28.34375 28 L 14.203125 28 L 14.203125 14 Z M 14.203125 14 L 14.203125 0.140625 L 28.34375 0.140625 L 28.34375 14 Z M 0 -98.828125 L 0 -113.046875 L 14.203125 -113.046875 L 14.203125 -98.828125 Z M 0 14 L 0 0.140625 L 14.203125 0.140625 L 14.203125 14 Z M 0 0.140625 L 0 -14.0625 L 14.203125 -14.0625 L 14.203125 0.140625 Z M 0 -14.0625 L 0 -28.203125 L 14.203125 -28.203125 L 14.203125 -14.0625 Z M 0 -28.203125 L 0 -42.421875 L 14.203125 -42.421875 L 14.203125 -28.203125 Z M 0 -42.421875 L 0 -56.5625 L 14.203125 -56.5625 L 14.203125 -42.421875 Z M 0 -56.5625 L 0 -70.765625 L 14.203125 -70.765625 L 14.203125 -56.5625 Z M 0 -70.765625 L 0 -84.96875 L 14.203125 -84.96875 L 14.203125 -70.765625 Z M 0 -84.96875 L 0 -98.828125 L 14.203125 -98.828125 L 14.203125 -84.96875 Z M 0 -84.96875 "/></g></g></g><g fill="#000000" fill-opacity="1"><g transform="translate(473.223833, 420.172597)"><g><path d="M 141.25 14 L 141.25 28 L 127.3125 28 L 127.3125 14 Z M 127.3125 14 L 127.3125 0.140625 L 141.25 0.140625 L 141.25 14 Z M 127.3125 0.140625 L 127.3125 -14.0625 L 141.25 -14.0625 L 141.25 0.140625 Z M 127.3125 -14.0625 L 127.3125 -28.203125 L 141.25 -28.203125 L 141.25 -14.0625 Z M 127.3125 -28.203125 L 127.3125 -42.421875 L 141.25 -42.421875 L 141.25 -28.203125 Z M 127.3125 -42.421875 L 127.3125 -56.5625 L 141.25 -56.5625 L 141.25 -42.421875 Z M 127.3125 -56.5625 L 127.3125 -70.765625 L 141.25 -70.765625 L 141.25 -56.5625 Z M 127.3125 -70.765625 L 127.3125 -84.96875 L 141.25 -84.96875 L 141.25 -70.765625 Z M 127.3125 -84.96875 L 127.3125 -98.828125 L 141.25 -98.828125 L 141.25 -84.96875 Z M 113.1875 -98.828125 L 113.1875 -113.046875 L 127.3125 -113.046875 L 127.3125 -98.828125 Z M 127.3125 14 L 127.3125 28 L 113.1875 28 L 113.1875 14 Z M 113.1875 14 L 113.1875 0.140625 L 127.3125 0.140625 L 127.3125 14 Z M 113.1875 0.140625 L 113.1875 -14.0625 L 127.3125 -14.0625 L 127.3125 0.140625 Z M 113.1875 -14.0625 L 113.1875 -28.203125 L 127.3125 -28.203125 L 127.3125 -14.0625 Z M 113.1875 -28.203125 L 113.1875 -42.421875 L 127.3125 -42.421875 L 127.3125 -28.203125 Z M 113.1875 -42.421875 L 113.1875 -56.5625 L 127.3125 -56.5625 L 127.3125 -42.421875 Z M 113.1875 -56.5625 L 113.1875 -70.765625 L 127.3125 -70.765625 L 127.3125 -56.5625 Z M 113.1875 -70.765625 L 113.1875 -84.96875 L 127.3125 -84.96875 L 127.3125 -70.765625 Z M 113.1875 -84.96875 L 113.1875 -98.828125 L 127.3125 -98.828125 L 127.3125 -84.96875 Z M 98.96875 -98.828125 L 98.96875 -113.046875 L 113.1875 -113.046875 L 113.1875 -98.828125 Z M 113.1875 14 L 113.1875 28 L 98.96875 28 L 98.96875 14 Z M 98.96875 14 L 98.96875 0.140625 L 113.1875 0.140625 L 113.1875 14 Z M 84.828125 -98.828125 L 84.828125 -113.046875 L 98.96875 -113.046875 L 98.96875 -98.828125 Z M 98.96875 14 L 98.96875 28 L 84.828125 28 L 84.828125 14 Z M 84.828125 14 L 84.828125 0.140625 L 98.96875 0.140625 L 98.96875 14 Z M 70.625 -98.828125 L 70.625 -113.046875 L 84.828125 -113.046875 L 84.828125 -98.828125 Z M 70.625 14 L 70.625 0.140625 L 84.828125 0.140625 L 84.828125 14 Z M 70.625 0.140625 L 70.625 -14.0625 L 84.828125 -14.0625 L 84.828125 0.140625 Z M 70.625 -14.0625 L 70.625 -28.203125 L 84.828125 -28.203125 L 84.828125 -14.0625 Z M 70.625 -56.5625 L 70.625 -70.765625 L 84.828125 -70.765625 L 84.828125 -56.5625 Z M 70.625 -70.765625 L 70.625 -84.96875 L 84.828125 -84.96875 L 84.828125 -70.765625 Z M 70.625 -84.96875 L 70.625 -98.828125 L 84.828125 -98.828125 L 84.828125 -84.96875 Z M 70.625 14 L 70.625 28 L 56.40625 28 L 56.40625 14 Z M 56.40625 14 L 56.40625 0.140625 L 70.625 0.140625 L 70.625 14 Z M 56.40625 0.140625 L 56.40625 -14.0625 L 70.625 -14.0625 L 70.625 0.140625 Z M 56.40625 -14.0625 L 56.40625 -28.203125 L 70.625 -28.203125 L 70.625 -14.0625 Z M 56.40625 -28.203125 L 56.40625 -42.421875 L 70.625 -42.421875 L 70.625 -28.203125 Z M 56.40625 -70.765625 L 56.40625 -84.96875 L 70.625 -84.96875 L 70.625 -70.765625 Z M 56.40625 -84.96875 L 56.40625 -98.828125 L 70.625 -98.828125 L 70.625 -84.96875 Z M 42.5625 -98.828125 L 42.5625 -113.046875 L 56.40625 -113.046875 L 56.40625 -98.828125 Z M 56.40625 14 L 56.40625 28 L 42.5625 28 L 42.5625 14 Z M 42.5625 14 L 42.5625 0.140625 L 56.40625 0.140625 L 56.40625 14 Z M 42.5625 0.140625 L 42.5625 -14.0625 L 56.40625 -14.0625 L 56.40625 0.140625 Z M 42.5625 -14.0625 L 42.5625 -28.203125 L 56.40625 -28.203125 L 56.40625 -14.0625 Z M 42.5625 -28.203125 L 42.5625 -42.421875 L 56.40625 -42.421875 L 56.40625 -28.203125 Z M 42.5625 -42.421875 L 42.5625 -56.5625 L 56.40625 -56.5625 L 56.40625 -42.421875 Z M 42.5625 -84.96875 L 42.5625 -98.828125 L 56.40625 -98.828125 L 56.40625 -84.96875 Z M 28.34375 -98.828125 L 28.34375 -113.046875 L 42.5625 -113.046875 L 42.5625 -98.828125 Z M 42.5625 14 L 42.5625 28 L 28.34375 28 L 28.34375 14 Z M 28.34375 14 L 28.34375 0.140625 L 42.5625 0.140625 L 42.5625 14 Z M 14.203125 -98.828125 L 14.203125 -113.046875 L 28.34375 -113.046875 L 28.34375 -98.828125 Z M 28.34375 14 L 28.34375 28 L 14.203125 28 L 14.203125 14 Z M 14.203125 14 L 14.203125 0.140625 L 28.34375 0.140625 L 28.34375 14 Z M 0 -98.828125 L 0 -113.046875 L 14.203125 -113.046875 L 14.203125 -98.828125 Z M 0 14 L 0 0.140625 L 14.203125 0.140625 L 14.203125 14 Z M 0 0.140625 L 0 -14.0625 L 14.203125 -14.0625 L 14.203125 0.140625 Z M 0 -14.0625 L 0 -28.203125 L 14.203125 -28.203125 L 14.203125 -14.0625 Z M 0 -28.203125 L 0 -42.421875 L 14.203125 -42.421875 L 14.203125 -28.203125 Z M 0 -42.421875 L 0 -56.5625 L 14.203125 -56.5625 L 14.203125 -42.421875 Z M 0 -56.5625 L 0 -70.765625 L 14.203125 -70.765625 L 14.203125 -56.5625 Z M 0 -70.765625 L 0 -84.96875 L 14.203125 -84.96875 L 14.203125 -70.765625 Z M 0 -84.96875 L 0 -98.828125 L 14.203125 -98.828125 L 14.203125 -84.96875 Z M 0 -84.96875 "/></g></g></g></svg>